
<global>
amp_veltrack=0
ampeg_attack=0.005
ampeg_release=0.50
</global>

<group>
group_label=PP
lpc_hicc1=42
lpc_locc1=0

<region>
hivel=127
key=A#1
loop_end=246115
loop_mode=loop_continuous
loop_start=83168
loop_xfade=30926
lovel=0
lpc=c9lLQnhV+cK8xe1Cd1pYwp0zvEBv0f3AKAK/QUFTccHZ2dTAqC56QdiYm8BDuCPBIKq+QPcz8EBl433AOnynwG6a0T972MVAZeZ2v3VMw8BaiKw+9vZMQe/zSMFaVzJA
lpc_rms=-34.18
offset=4240
sample=Bass_sustain_PP_A#1.opus
</region>

<region>
hivel=127
key=A#2
loop_end=245316
loop_mode=loop_continuous
loop_start=82899
loop_xfade=30825
lovel=0
lpc=7wIoQiCYzsIMDs9CrBVbwswwCEHWMa++NkBnQeuIl8HKhYxAl7V5QbF4f8Fw/LC/DYwQQdFRUcChQb4/uTf6v3zi10BGli/BafwXQdIZKMBjgwDAw5UTvvqqLj/KEM+9
lpc_rms=-33.79
offset=6228
sample=Bass_sustain_PP_A#2.opus
</region>

<region>
hivel=127
key=A#3
loop_end=242150
loop_mode=loop_continuous
loop_start=81829
loop_xfade=30427
lovel=0
lpc=aZDzQff8h8LK+1dCIBNywWSl2MCqXLRAdwOJQNpf7MCMhIs/v4S/QJBAhMBTxynAkH4Iv0bM3kDKRUXAwjGCwITwoUAf14o8X4ysv+ftE8BvLZFAuI8wPzat+sB3wJ5A
lpc_rms=-36.95
offset=1173
sample=Bass_sustain_PP_A#3.opus
</region>

<region>
hikey=G5
hivel=127
lokey=A#4
loop_end=228818
loop_mode=loop_continuous
loop_start=77324
loop_xfade=28752
lovel=0
lpc=wBI/QutV48LHM9lCJDhtwjiKnUGPwxrAaYAtQW0NoMF3biFBGsJ3QExL0MC3Kl1AqEDtP2Vlo8AkKNY/D8ywQItAt8A6lRTBcI2vQfPegcHjITFA33tGQX3oi8H73QRB
lpc_rms=-32.67
offset=3041
pitch_keycenter=A#4
sample=Bass_sustain_PP_A#4.opus
</region>

<region>
hivel=127
key=A2
loop_end=241028
loop_mode=loop_continuous
loop_start=81450
loop_xfade=30286
lovel=0
lpc=WGyzQmVFS8MPjSpDWvCLwswfLED2jT/ABXKkQc1ZgcFkrJs/P7+HQZRz1sDj3DvByuZ4QRQufj/YxN7AigX4P2ypE0Aun7TAxlY2QBOkpsBDlY1A5SW/v5JBhb5tgFA/
lpc_rms=-29.99
offset=3179
sample=Bass_sustain_PP_A2.opus
</region>

<region>
hivel=127
key=A3
loop_end=252567
loop_mode=loop_continuous
loop_start=85349
loop_xfade=31737
lovel=0
lpc=KEX/QU/Zn8KOP5JClWT3wa429j/RiLFAgSamQK/FFsGcwtS/+LYiQc6OtsBI4VfA4dMJQNX3o0CCvyfAQ0+swIDrPkD/apdA7xqrwISERb+jEpBAG8/uPzKx8MCJCmtA
lpc_rms=-37.61
offset=6068
sample=Bass_sustain_PP_A3.opus
</region>

<region>
hivel=127
key=A4
loop_end=254499
loop_mode=loop_continuous
loop_start=86002
loop_xfade=31979
lovel=0
lpc=MEzZQiqXjcM4f5ZDpysmw1ziFkIXpElADRzeQVAOOcLxqYNBDYSBQal+RsGRLWHBsGm+QVxSlcFHdBZB8bwcQPN9akDXOsvBZv8iQrcc7sGBYK9AXmVMQcFBj8E97x5B
lpc_rms=-23.32
offset=4862
sample=Bass_sustain_PP_A4.opus
</region>

<region>
hivel=127
key=B1
loop_end=247427
loop_mode=loop_continuous
loop_start=83612
loop_xfade=31091
lovel=0
lpc=ueE4QjON2cJHxd5C7WeAwtrse0GvvEbBGCoAQpd288FpztDAZJgKQmJ9s8GMyjPBE37BQVNR6MChAgPB06UnQYMA0z+oOhDB4GT4QHGZSsAVq8c+MEU9PwGmAcCWMg8/
lpc_rms=-33.82
offset=11961
sample=Bass_sustain_PP_B1.opus
</region>

<region>
hivel=127
key=B2
loop_end=244994
loop_mode=loop_continuous
loop_start=82790
loop_xfade=30785
lovel=0
lpc=RtpPQg/w18LTh6hC+nAKwk7w9T72pNg+pYMpQWsmOcH1iAQ8hIpFQclc4sDOwabAZ0HaQGqzEEB+Wum/8sKuv7bVqkBd5LTAho26P1OFFEBy9e6/m3PpP1LMd8C9Y4Y/
lpc_rms=-35.64
offset=2143
sample=Bass_sustain_PP_B2.opus
</region>

<region>
hivel=127
key=B3
loop_end=258951
loop_mode=loop_continuous
loop_start=87506
loop_xfade=32539
lovel=0
lpc=tlcrQmDE0sJP6sBCdewowiKFEUAckMtAu1HmQHuXOMEEdX2//lFbQeT7DMGgrlHALgUHQG7p20AUL5XArDg3wL4RP0DJgDFAQ1jlwB/GFkDVDRtAfGAiQN2gF8Ed5bxA
lpc_rms=-35.06
offset=979
sample=Bass_sustain_PP_B3.opus
</region>

<region>
hivel=127
key=C#2
loop_end=246690
loop_mode=loop_continuous
loop_start=83363
loop_xfade=30998
lovel=0
lpc=8L96QhndCsNenwJDBkWFwgF0Q0HWqZPBmAEvQkExA8LFvYDBy4sZQmw4WcFvhZvBnYycQeHWT73xZb7A3JZ7QMaJpECJ1NvA6ZGzQMXn7b+qGFXA3f4MQbj6LcErMoVA
lpc_rms=-32.54
offset=10982
sample=Bass_sustain_PP_C#2.opus
</region>

<region>
hivel=127
key=C#3
loop_end=251493
loop_mode=loop_continuous
loop_start=84986
loop_xfade=31602
lovel=0
lpc=P8KbQpXiJMOKMQNDnO5pwvWGF0GhzFXBk4oBQlSYisEXYYHBkAYLQmg0RsE1snHBtR+cQceumsCJXb3AjKUfQb7+4z8aJjzBkArzQIQ6ssCasUvAn9sFQcgfcMG0AjZB
lpc_rms=-31.66
offset=6365
sample=Bass_sustain_PP_C#3.opus
</region>

<region>
hivel=127
key=C#4
loop_end=240676
loop_mode=loop_continuous
loop_start=81331
loop_xfade=30242
lovel=0
lpc=R6b/Qp3hgcOHXQZD2B/sQVPpRMIIyMhAePciQn9ZyMH5Bq3B+NuvQVUVkEF4YgfC12FMwJkwx0Efmz/B+rEgwTOPd0GFi0xA3KVXwbdN60BTmYU/YPYPvnhKi8BfvoJA
lpc_rms=-23.04
offset=960
sample=Bass_sustain_PP_C#4.opus
</region>

<region>
hivel=127
key=C2
loop_end=258191
loop_mode=loop_continuous
loop_start=87249
loop_xfade=32443
lovel=0
lpc=hxJlQmokAcNN6PdCc4R4wqzOAEFIbUfBmlsBQtBfsMEOfIzBSEkCQoyd3cDQPK/BTtqfQXd0uT9WRh3BY9ndQCxlEEDpGq3AelbMQC5YWMDG3zO/YHqUQJNmn8Cf+UA/
lpc_rms=-34.12
offset=36902
sample=Bass_sustain_PP_C2.opus
</region>

<region>
hivel=127
key=C3
loop_end=249266
loop_mode=loop_continuous
loop_start=84233
loop_xfade=31322
lovel=0
lpc=/4JSQp/55MI04cFC9+JWwlZDo0ErGrnAaUe6QP3G0cC7pUpAmd3HQF4PucAvYQ3Ag0uUQFUHAsBNNmxAMsA0v7jwtb+3DhXAdDaMQHPocsCaX9Q+sm1TQLQ/y8B6l2xA
lpc_rms=-32.76
offset=6022
sample=Bass_sustain_PP_C3.opus
</region>

<region>
hivel=127
key=C4
loop_end=255655
loop_mode=loop_continuous
loop_start=86392
loop_xfade=32125
lovel=0
lpc=7ZHWQrAMgsNSq1tDsN2owvEBGEE7oDpB0O9oQeiI4cHFOro9RTDfQQ0FRcHdDVnBrabWQCVfMUHUV0TBzTAawUNHQ0Eeyx1BsikHwbRp5sAI0uhAWLE9Qa0X4sHR7XpB
lpc_rms=-27.96
offset=13542
sample=Bass_sustain_PP_C4.opus
</region>

<region>
hivel=127
key=D#2
loop_end=260725
loop_mode=loop_continuous
loop_start=88106
loop_xfade=32762
lovel=0
lpc=NyZ+QkWOEsN3jgVD4hp5wiPTEUEj72bBLXMZQtiNx8FpKZDBOSwCQsYu78Bn6V3BX9ciQSFa6j8hO8m/qrdxQACEJ8C3ATHAIGXzQOSf2sASj8m/KLUmQb3ta8Hp6NpA
lpc_rms=-32.35
offset=2186
sample=Bass_sustain_PP_D#2.opus
</region>

<region>
hivel=127
key=D#3
loop_end=244535
loop_mode=loop_continuous
loop_start=82634
loop_xfade=30727
lovel=0
lpc=Cp5fQl0F8sJ3gcpCp79JwgYrF0EAwps/OEoXQRKvM8GNvjVA4jXMQLtedsBSCUvAvSL0QI4N08BFZrM+YEoHQVbEV8DR7s3AgqPPQFSXlcC41UM+paUPQETLzsAPjrVA
lpc_rms=-34.01
offset=1884
sample=Bass_sustain_PP_D#3.opus
</region>

<region>
hikey=D4
hivel=127
lokey=D4
loop_end=260121
loop_mode=loop_continuous
loop_start=87901
loop_xfade=32686
lovel=0
lpc=wS8IQ/I7kMOBPlNDArZiwjDDfcGwITe9ABlRQkutNMIfiWq/hSqIQed1MMBWI6/BZzd7QVvQOT+liHjASBlcQZk+AsAeBoPBg8oBQdo3BEE5aKHBZBKwQWkiisFqcSdB
lpc_rms=-25.40
offset=4914
pitch_keycenter=D#4
sample=Bass_sustain_PP_D#4.opus
</region>

<region>
hivel=127
key=D2
loop_end=258283
loop_mode=loop_continuous
loop_start=87280
loop_xfade=32455
lovel=0
lpc=7rGlQm6LP8M/EjNDfemqwgnMNkGPuY7BiiJLQuHqGcIl9ojB1PQiQu79OcEf26TB6vmXQUdX076RETrAJOe5QJtDSMBbMOm/Aj0ZQfqjTcEtvbdAuIy1QECDN8GWHpZA
lpc_rms=-30.33
offset=2886
sample=Bass_sustain_PP_D2.opus
</region>

<region>
hivel=127
key=D3
loop_end=258931
loop_mode=loop_continuous
loop_start=87500
loop_xfade=32536
lovel=0
lpc=YVmeQvNQMMMFUxJDyqN5wi6ZNb+8R2tAW4iyQWKGmsGHkdHAg4DPQQyYAcH2qUTBgoBQQZEZGsALS43Ab/8IQQIFGUCt0TbBDVITQZx5NMFYwL5ASxv7P0YBW8FsgihB
lpc_rms=-30.62
offset=3569
sample=Bass_sustain_PP_D3.opus
</region>

<region>
hivel=127
key=E2
loop_end=266813
loop_mode=loop_continuous
loop_start=90163
loop_xfade=33527
lovel=0
lpc=CgPdQb9DRcLL9hhCN5nnwfyOo0H0u1nBGEjCQBd5lr8DJtW/L2CZP+NiJL/LZg5AIWtTwHJ8ckAdbWTAiVotQKX/9j8V01zAxRMXQLU69D78/si/WqAgQLznVcDI5Y0/
lpc_rms=-35.64
offset=12310
sample=Bass_sustain_PP_E2.opus
</region>

<region>
hivel=127
key=E3
loop_end=256265
loop_mode=loop_continuous
loop_start=86598
loop_xfade=32201
lovel=0
lpc=ob6XQhKMJMPnyONCxYYbwlH6PUH0zde/xJYtQYCHAsGy8Xc+VDElQYJ0GcF4xM/ADv0DQXHwAMDqA64/3kp1QNBuxr+nGQzB3ijDQF2+fcAnWpJAM6nGPu1SCMBWcN0+
lpc_rms=-32.02
offset=4449
sample=Bass_sustain_PP_E3.opus
</region>

<region>
hivel=127
key=E4
loop_end=249935
loop_mode=loop_continuous
loop_start=84459
loop_xfade=31406
lovel=0
lpc=ctaBQ+fQGsRsThJEF7eIw9MNIkIlM0/BDr/WQvxXDcPYBJBCKrPTQYx/ZsIz64HA/3CcQTlRB0IUJ2LCN1THQS2RK0GLmw7CiMrkQXNnmMFUxxRChb7qwMiIKsIyFgxC
lpc_rms=-18.55
offset=8301
sample=Bass_sustain_PP_E4.opus
</region>

<region>
hivel=127
key=F#2
loop_end=246359
loop_mode=loop_continuous
loop_start=83251
loop_xfade=30956
lovel=0
lpc=HZmqQlHmR8PRxChDFiF/wmHzp0AxDl3B/LYbQu4FncHtfpjBfbq8QQujLEBDEKnBblpuQbGZDT+Zg/rAxKhKQRnxrsDjthzBdhpIQeIPdcAu7T+/NK0iP8OPrD+G6v2/
lpc_rms=-30.83
offset=2560
sample=Bass_sustain_PP_F#2.opus
</region>

<region>
hivel=127
key=F#3
loop_end=254841
loop_mode=loop_continuous
loop_start=86117
loop_xfade=32022
lovel=0
lpc=YECAQ7bk48OPy2VD0sCXwoIfyEHHOKTAldfRQW+F88AREq5AeFa1QTPACUCKXt7B0hrrvmqjLEGOCsDAL/HHQc/83sDATrrBcJXnwI9kdUE5S3DBcjHQwBm/j0GWYyJA
lpc_rms=-23.63
offset=2785
sample=Bass_sustain_PP_F#3.opus
</region>

<region>
hivel=127
key=F#4
loop_end=260822
loop_mode=loop_continuous
loop_start=88138
loop_xfade=32774
lovel=0
lpc=V0FvQ27hAsQW4u1DZxBfw0+1XEJZK0zCyhHDQugyyMK88/ZB4MDtQabUCsJHcYvBz04HQkpGEcArzszBL4cGQnR58cAtSxLCOSlkQhXq1MG9xy3Ag1cOQs3oDsKAJ25B
lpc_rms=-19.68
offset=17406
sample=Bass_sustain_PP_F#4.opus
</region>

<region>
hivel=127
key=F2
loop_end=252323
loop_mode=loop_continuous
loop_start=85266
loop_xfade=31706
lovel=0
lpc=jz9sQgjoB8OMH/FCQj1bwm1S3EBBtEHBCq8IQqBmqMEaOnHBIfrjQYoXrsCDsFnBH8EEQWVcVUAbPEXAQpemQAJtEMCjbFDAxwuWQMFgjcDy9xjA0WsZQZM2SsFl67xA
lpc_rms=-33.45
offset=1712
sample=Bass_sustain_PP_F2.opus
</region>

<region>
hivel=127
key=F3
loop_end=260558
loop_mode=loop_continuous
loop_start=88049
loop_xfade=32741
lovel=0
lpc=0RoYQ/fomcOYPTRD5RQ6woPtR0GCEW9AvwtyQRnLDMH53sjANnKbQWLUXcAJjDjBq3QUvzteP0CQXL/Arv2CQX+rAcGHfyrAthuywAGFVEDFAMQ/SyGqQIG7hsHasD5B
lpc_rms=-26.68
offset=4797
sample=Bass_sustain_PP_F3.opus
</region>

<region>
hivel=127
key=F4
loop_end=253440
loop_mode=loop_continuous
loop_start=85644
loop_xfade=31846
lovel=0
lpc=MYUGQ/4lqsPSRLJD0FVWw/8tq0J7n97BdTknQoRPiMKKET1CcJuQwNP4xcGZ+YVBSSEPQJmL7kDqgKzBa/QfQf3zzUAoqtHBmEEtQiIHq8HQqDbB0z0CQkXqIMLkKqxB
lpc_rms=-21.51
offset=7319
sample=Bass_sustain_PP_F4.opus
</region>

<region>
hivel=127
key=G#2
loop_end=255795
loop_mode=loop_continuous
loop_start=86440
loop_xfade=32142
lovel=0
lpc=lEm9Qq/fRcMbKRNDh1lTwrGrpsCJGFzAATTYQf8Od8FeTv/ADta/QRf2iMB6xFjBQDAbQQPUSECPiU3BM+WNQbOX9j4gXTXBG+uGQAerJsBlVChA8V5vv9VegcGUwV5B
lpc_rms=-29.64
offset=6532
sample=Bass_sustain_PP_G#2.opus
</region>

<region>
hivel=127
key=G#3
loop_end=259392
loop_mode=loop_continuous
loop_start=87655
loop_xfade=32594
lovel=0
lpc=1GDdQscLesNCFzBDJpeDwuAIXEJKoxDCg52kQWpbgMHI2INBeR1cwbRJIUHU8D/BUQ6RwPTBj0EsyxPBbHUQQJvEsT5NvyDBcT13QU7m4sAYUC1AbRvQQDLtyMFBroBB
lpc_rms=-25.98
offset=1669
sample=Bass_sustain_PP_G#3.opus
</region>

<region>
hivel=127
key=G#4
loop_end=262967
loop_mode=loop_continuous
loop_start=88863
loop_xfade=33043
lovel=0
lpc=LMEAQ1xlmsPl8JNDbXkkw2raoUL400bC6acJQjjD8sGsOXxBV2EvQXgpPcF5/gvBgX7PQdw4icEPPAnAcJUiQSrvQ8F9u9m/9AX7QdtYVsLWsglCa1kaQV8QpMGRXBRB
lpc_rms=-21.90
offset=6930
sample=Bass_sustain_PP_G#4.opus
</region>

<region>
hivel=127
key=G2
loop_end=260297
loop_mode=loop_continuous
loop_start=87961
loop_xfade=32708
lovel=0
lpc=/xjtQj7ThcPFEl5Db9+1wulsmUDxsgPB4LAYQla+tsGSd2zBgt4GQnhabsAsScbBVCygQdbAmEAYJIjBR2+tQcty578XAGrBiEUBQbVyzsD/ylNAyo8ewKNdc8HMYnhB
lpc_rms=-28.59
offset=2666
sample=Bass_sustain_PP_G2.opus
</region>

<region>
hivel=127
key=G3
loop_end=263918
loop_mode=loop_continuous
loop_start=89185
loop_xfade=33163
lovel=0
lpc=ZhkwQyjxqcN8QzRDd3e7wt6UmkINrmBBjokNQbQkk8GrhjJBFS3cwPZwpb+dKxPBP9pswD00Rb8fYRxB1doWwbsrW0D2311AWyvTQBXgQj4R8FDBxI/ZQGztTMG+qztB
lpc_rms=-25.04
offset=9510
sample=Bass_sustain_PP_G3.opus
</region>

<region>
hivel=127
key=G4
loop_end=254570
loop_mode=loop_continuous
loop_start=86026
loop_xfade=31988
lovel=0
lpc=D3TDQt+fgMOgnodD7/8mw/2AsUK9ay3CwEG7QWOxucH1oplBiHf+vxLdl8FUz7RBBnuTwSUpPEFUERhBmjDDwcxPoUGOCGnBggUZQVa0t8DkJd8/lzeYQX3VDsJ0aaBB
lpc_rms=-23.35
offset=8092
sample=Bass_sustain_PP_G4.opus
</region>

<region>
hikey=D#4
hivel=127
lokey=D#4
loop_end=260121
loop_mode=loop_continuous
loop_start=87901
loop_xfade=32686
lovel=0
lpc=wS8IQ/I7kMOBPlNDArZiwjDDfcGwITe9ABlRQkutNMIfiWq/hSqIQed1MMBWI6/BZzd7QVvQOT+liHjASBlcQZk+AsAeBoPBg8oBQdo3BEE5aKHBZBKwQWkiisFqcSdB
lpc_rms=-25.40
offset=4914
pitch_keycenter=D4
sample=Bass_sustain_PP_D#4.opus
</region>
</group>

<group>
group_label=MF
lpc_hicc1=84
lpc_locc1=43
volume=-6.0

<region>
hivel=127
key=A#1
loop_end=290325
loop_mode=loop_continuous
loop_start=86505
loop_xfade=32167
lovel=0
lpc=pzf5Qad9qMJsja9CdHQwwmYUNEGhUw3Bf0WKQcoxY8FUZII/ke2hQNtsvz+CZAPBKZuPQJg2YUDpnza/reX5wAEns0CZwvQ/VHacvxaCjMDh0IZAusFbQOAM9MBsIldA
lpc_rms=-27.10
offset=496
sample=Bass_sustain_MF_A#1.opus
</region>

<region>
hivel=127
key=A#2
loop_end=289280
loop_mode=loop_continuous
loop_start=88139
loop_xfade=32774
lovel=0
lpc=SH/6QboWt8Le3NVCHs2BwjBvyUFIvXXBZSukQQmEhMElLJ6/sT5NQRm6FsG0tf8///JLwM4320BIaLc/zHMjwU6BLUFO7CbBpTviQCy4pr+ohWy+M/zdPoVKLMBMCwJA
lpc_rms=-25.99
offset=3122
sample=Bass_sustain_MF_A#2.opus
</region>

<region>
hivel=127
key=A#3
loop_end=264091
loop_mode=loop_continuous
loop_start=89243
loop_xfade=33185
lovel=0
lpc=TVpNQZdT7cGYKMVB/rbhwEtW7L9wDRa/K6LHQGl748CpzUZAxRQqP0N4n7w3LVDAzNYNQKUmnz/g2py/+VPhvooWDL5riipALoYVwDHW5rw62Z8+RgA2QJ09vcAIDEtA
lpc_rms=-28.89
offset=4018
sample=Bass_sustain_MF_A#3.opus
</region>

<region>
hikey=G5
hivel=127
lokey=A#4
loop_end=267488
loop_mode=loop_continuous
loop_start=84097
loop_xfade=31271
lovel=0
lpc=S2UYQksKz8Jp3d1CdPyAwuYpy0F0tC3B6q6NQT4xncG2lNq/LA3AQcp2sMHSjY9A2DGOQBWij8BIG0pAmvGKQJ4sEMAYGWnB3KeKQQEGjMDwKQbBhjCUQUwtgsHS+atA
lpc_rms=-27.95
offset=6823
pitch_keycenter=A#4
sample=Bass_sustain_MF_A#4.opus
</region>

<region>
hivel=127
key=A2
loop_end=299446
loop_mode=loop_continuous
loop_start=89471
loop_xfade=33269
lovel=0
lpc=cA04Qlj6AsO6txRD3b28wgTJKkLOZlzBSEa3QBeXI8EVr9BAOHuLQJtWHMD87RbBUtowQc6nqMCFBstAU7vuwGDzR0DecDDAPcsBQXXEL8H0fVFBdL19wUcIFUFTgYW/
lpc_rms=-21.04
offset=4620
sample=Bass_sustain_MF_A2.opus
</region>

<region>
hivel=127
key=A3
loop_end=284675
loop_mode=loop_continuous
loop_start=88470
loop_xfade=32897
lovel=0
lpc=zO2HQb/LOcIK3EpCdMjVwbwOO0AqcLlAthMUv/qOxsBqnGpANcV2QIzlVcD7mj7AD8dHQByxOb8gqrE/B4bnv8cZ2T61Ebw/oUBAwKCg0z9UZ7s/782EPiW8dsBqaw1A
lpc_rms=-28.05
offset=2346
sample=Bass_sustain_MF_A3.opus
</region>

<region>
hivel=127
key=A4
loop_end=283591
loop_mode=loop_continuous
loop_start=88189
loop_xfade=32793
lovel=0
lpc=ipyQQl9iNsN/iD5DRhjpwgEjCUJ7uwnAi6XOQY6GUcFd1RDCSk1kQgx0AMIjnX7ApAv7P1FxjUEiatbBJfiaQa3VB0Ek0tPBjrEEQgYLrcFxN6/AjVmQQXOorcFcKFJB
lpc_rms=-20.15
offset=9923
sample=Bass_sustain_MF_A4.opus
</region>

<region>
hivel=127
key=B1
loop_end=286374
loop_mode=loop_continuous
loop_start=89603
loop_xfade=33318
lovel=0
lpc=JlgRQunmzMKtld5CJCtdwsjJ2UAtvNy+KfRcQTgYYsFDzQm+hvcBQQwCLUC/SZLB+ZyPQaFqe8DJz/E+AuQQwYyl0kBj9CZAwtFWwKtKMMA2mNNACiojwC5yAsAPvqc/
lpc_rms=-23.85
offset=5506
sample=Bass_sustain_MF_B1.opus
</region>

<region>
hivel=127
key=B2
loop_end=282405
loop_mode=loop_continuous
loop_start=87246
loop_xfade=32442
lovel=0
lpc=b10mQpoI8MKa5QlDKpSownF2EkLpgsfBopb1QYCZycFoRUNAzx92Qcv8dsEGjsQ/ZQtlQKXcVb6TOZhAfXAbwRqnPUELJlfBDaAXQdLIWsDZzAxA9Xygv9oxAsAbFvw/
lpc_rms=-25.12
offset=7051
sample=Bass_sustain_MF_B2.opus
</region>

<region>
hivel=127
key=B3
loop_end=277603
loop_mode=loop_continuous
loop_start=88148
loop_xfade=32778
lovel=0
lpc=9kSkQfzHVsK3w1pC02jmwb5x7ECJ8Me+q3CUQM0nm8CvOm+/LiqvQEDsr8BCns+/7Ex9QBxKcT/U9Ik+DTdXwIiKT0CBHo2/yNZWwCESXUDS2y8/scLTv0qnwT2bV4k+
lpc_rms=-26.79
offset=2239
sample=Bass_sustain_MF_B3.opus
</region>

<region>
hivel=127
key=C#2
loop_end=288543
loop_mode=loop_continuous
loop_start=89604
loop_xfade=33319
lovel=0
lpc=3QixQbXgZcKI2m5CbrQDwlrRSUEFkwfB9TFLQZC4S8GhDHlAApvtP1YEDj+3WITA4M+5P0VFK0A5IJW/QUdyPX4wGb+JZMG/5iSMQJeOksBryAxAIi2+vchJ2b4+u0m9
lpc_rms=-26.28
offset=4206
sample=Bass_sustain_MF_C#2.opus
</region>

<region>
hivel=127
key=C#3
loop_end=292440
loop_mode=loop_continuous
loop_start=87892
loop_xfade=32682
lovel=0
lpc=kAABQuYTt8IGcdBCO6aBwssy/0GPvu3BjfcPQhj8x8FnCoo/iQ6PQf3shsFsA+c/3VHfQJ5sFsEV2zxBIG0rwfbMBUEf7AzBclMKQYZynsBsE2hA7txPwDvhgb+qBOc/
lpc_rms=-25.65
offset=1847
sample=Bass_sustain_MF_C#3.opus
</region>

<region>
hivel=127
key=C#4
loop_end=283354
loop_mode=loop_continuous
loop_start=88324
loop_xfade=32843
lovel=0
lpc=U8zjQv8elsMTZaNDGetCwwoGk0IooMLBd7EBQlFCEsIz0JjBPZSVQh5pecKBA3ZBIvGMvwslH0C3ID3AixeQQRIvAcK4Zc9ByGl7wRlSEUErdRG/b94WQZVs8sGfV7BB
lpc_rms=-15.77
offset=5315
sample=Bass_sustain_MF_C#4.opus
</region>

<region>
hivel=127
key=C2
loop_end=291898
loop_mode=loop_continuous
loop_start=88867
loop_xfade=33045
lovel=0
lpc=L4rkQc0DosKusLJCpfA0wnU/cUA2zdtAaWT0P90I58CgWVpA1Gk3PwDdhT5SJnrAMFtLQOHDqT/lJrO/PoVBv+g5NsCwSKhAoDF2vjZUd8C87FxA2xIFvy1iNcALTfo/
lpc_rms=-26.80
offset=1027
sample=Bass_sustain_MF_C2.opus
</region>

<region>
hivel=127
key=C3
loop_end=280319
loop_mode=loop_continuous
loop_start=88145
loop_xfade=32776
lovel=0
lpc=fXXDQfkhdsLr2nlCj1kiwn4e2EG4aZ/BKnlJQZN0w8CAJDlAzEHRv90YSD9RTeG+T+1Kvlznlr+m/5xAYzeMwI/kjj7tmV4/3ciVP18L17/uZQy/vpGZQG2N78BxhGpA
lpc_rms=-26.04
offset=3844
sample=Bass_sustain_MF_C3.opus
</region>

<region>
hivel=127
key=C4
loop_end=275678
loop_mode=loop_continuous
loop_start=87089
loop_xfade=32384
lovel=0
lpc=RlZcQmYaFcPoJSRD0dzJwjPPHEJF1p/BoqAMQgpWFcKtLiBBcXScQfaw2MFDqytBk929P/OvfkAGQKjAkgZFwWO+nUG8jZM/Pp9FwVM/R0Cr9rtAJvDxwCN/TD9rDCRA
lpc_rms=-20.71
offset=4276
sample=Bass_sustain_MF_C4.opus
</region>

<region>
hivel=127
key=D#2
loop_end=287851
loop_mode=loop_continuous
loop_start=88038
loop_xfade=32737
lovel=0
lpc=wlHWQQ2ImMKTybJCxI1lwkA1o0GzSYbAGA4yQR2TmcEeUFVBvN7ewC9SEEGa/zTBCavmQGhc/b9wto2+NQ1tQC5k/MDp4vlAgxsYwM8KIcALvUxAkxoXwBNbOz7cMDA/
lpc_rms=-24.79
offset=1436
sample=Bass_sustain_MF_D#2.opus
</region>

<region>
hivel=127
key=D#3
loop_end=288085
loop_mode=loop_continuous
loop_start=88671
loop_xfade=32972
lovel=0
lpc=cjEBQvUprsK2z75CYIKAwvl/D0IYiKDBmk+EQaTEMsHB0zPAe+NkQek8P8HkAClA/dzkP27EUsCgZTFAauICQLZyeMANrQm+NZYqvuTN+z/Tf4K+N+qNPsDQcr+bwXE+
lpc_rms=-27.16
offset=1067
sample=Bass_sustain_MF_D#3.opus
</region>

<region>
hivel=127
key=D#4
loop_end=288962
loop_mode=loop_continuous
loop_start=89281
loop_xfade=33198
lovel=0
lpc=R7RKQiF/GcNIYEFDgvEIw28di0IOIkbCRHODQkxMgcL8usdBVPEvQZVPQ8HmiPHATTJAQeWwm0AksZnBwKrbQepnqsESJFDA0paUQeYaP8EitpXASJ2UQc+SlcHA/exA
lpc_rms=-20.17
offset=7522
sample=Bass_sustain_MF_D#4.opus
</region>

<region>
hivel=127
key=D2
loop_end=283277
loop_mode=loop_continuous
loop_start=88475
loop_xfade=32899
lovel=0
lpc=MgjVQXN9ksJQsKBCk2Mows0/qkCNAdZAe5mYvSSd58DidHlAlyD9v6A+/kAQ8S3BEXeoQBIW/r6QSo8/fpGRP+i978DzafBAAHuoP0wqEcHy9BRBjTTHwFGxJkCylk6+
lpc_rms=-25.67
offset=3475
sample=Bass_sustain_MF_D2.opus
</region>

<region>
hivel=127
key=D3
loop_end=294440
loop_mode=loop_continuous
loop_start=89282
loop_xfade=33199
lovel=0
lpc=KwAjQgTq5sKKzwFDl+GhwsRmFUJWCabBC3rDQVSjvMEoUTxAD0tlQaqdFMH44IHA/1f3QNy2kcBc/5K+jKO0QMK5e8C2OQvAu191QL4/yMBW3y9BnEQrwZRPuECztay/
lpc_rms=-24.29
offset=1713
sample=Bass_sustain_MF_D3.opus
</region>

<region>
hivel=127
key=D4
loop_end=286689
loop_mode=loop_continuous
loop_start=92369
loop_xfade=33634
lovel=0
lpc=bMuXQpatS8P571pD7NXwwpPhNEJeZDfCEgGOQveTV8LG7ALBmUkeQpfsi8HMU+DANBm5QIXhRT73sPRARHR2wIDLh8GuQY5B9K2/QP1KhsF6qP6/f2DYQR1RAMJ5f2xB
lpc_rms=-18.18
offset=13475
sample=Bass_sustain_MF_D4.opus
</region>

<region>
hivel=127
key=E2
loop_end=284167
loop_mode=loop_continuous
loop_start=87365
loop_xfade=32486
lovel=0
lpc=OFHKQQY8jcICOJ1Chxs+wjbpkkHg2YjAElVNQP1locCF4wtAjephPyHPST9PdKHAFBU4QNLLxT9VCKI/HdMHwOL4DsB8fEBA9mqlv9i2/T6a/qQ/devev8k7M769FiI/
lpc_rms=-25.69
offset=1878
sample=Bass_sustain_MF_E2.opus
</region>

<region>
hivel=127
key=E3
loop_end=272092
loop_mode=loop_continuous
loop_start=86566
loop_xfade=32189
lovel=0
lpc=tYw6Qm50AcO7zAdDSriNwgzJ7UGDu/TBqeYgQkEb9MHK2g9B46IdwGUMHUFnq4bBdnmSQYLuP8GI2MA/Z68DQaw83cBiVw3AGj60PzXSo0Dw1To+AWwpwcb2CEFo2NS/
lpc_rms=-24.54
offset=1279
sample=Bass_sustain_MF_E3.opus
</region>

<region>
hivel=127
key=E4
loop_end=289910
loop_mode=loop_continuous
loop_start=88990
loop_xfade=33091
lovel=0
lpc=VeYYQ6TCzMM04thDvElyw7JZuEIkMFvCdMOdQgUShcKsymNBze3pQOpVgsFecZHA8afpQUm1uUB6ew3CxpXVQG95E0IEr2jCWNpHQjYdOcKKwWtC2J3cwaNQmMHkHYtB
lpc_rms=-12.70
offset=5302
sample=Bass_sustain_MF_E4.opus
</region>

<region>
hivel=127
key=F#2
loop_end=297171
loop_mode=loop_continuous
loop_start=89569
loop_xfade=33306
lovel=0
lpc=2rACQg4JtcIywMpC8FV/wrP16kEQoXrBUrGZQcz7w8HddZdBtosOwTaYlkBWb+XAIBenQEEm+L+dHAhBTcckwXwOGD1JiotAvkriP8CmxsBqePtABProwC3AJkDv2Lg+
lpc_rms=-22.21
offset=8226
sample=Bass_sustain_MF_F#2.opus
</region>

<region>
hivel=127
key=F#3
loop_end=285572
loop_mode=loop_continuous
loop_start=88702
loop_xfade=32983
lovel=0
lpc=skqzQh2MgMOOapNDtwdIw0Do3kJyPlzCQL3lQfatn8F6TQZBWYIaQeloFMEAZarBdKMSQi0K6sEuzZZBqKS7vqL7h8Fn/HNB4oXCvzELf0DqnJfBwKuOQXt67MB9Uw9A
lpc_rms=-18.49
offset=1586
sample=Bass_sustain_MF_F#3.opus
</region>

<region>
hivel=127
key=F#4
loop_end=290231
loop_mode=loop_continuous
loop_start=88154
loop_xfade=32780
lovel=0
lpc=6sqMQqtfOsOBZ0pDQj8OwyAPvkJftYLCMZsRQifwJsB5jbPAgzwYQJpX9MAPlRvBAKGpQZxKaz988afBNGFeQZ/2BEHwfjTB4J6DP7muD8DvKbtAqmO8vLSxCcE7hdJA
lpc_rms=-15.77
offset=4137
sample=Bass_sustain_MF_F#4.opus
</region>

<region>
hivel=127
key=F2
loop_end=296408
loop_mode=loop_continuous
loop_start=89626
loop_xfade=33327
lovel=0
lpc=9yYKQjqdx8LvdetC6l+UwikM2kFaQ0LBWRKnQVcNx8ENaj1BXayvvu0FB0AF4tvAb0LAQC/CzMAP/EpBjrgzwbjSpL89Gg5B2qkQwI76w8DC4BRAWgynQJHCvcCu1xZA
lpc_rms=-25.07
offset=9238
sample=Bass_sustain_MF_F2.opus
</region>

<region>
hivel=127
key=F3
loop_end=298469
loop_mode=loop_continuous
loop_start=89462
loop_xfade=33266
lovel=0
lpc=m0eEQveWQcM2HGFDorANw2C3YEI1u5LBPpOZQcnnTcFb9EzB5Bm1QcV9HsEL6JvAPwEJQd1jzcARiZI/jNUcQfbCS8GR1ohAfyKJv7/4tkCOf/3AWyW0QPQhnMD9BT1A
lpc_rms=-21.49
offset=2874
sample=Bass_sustain_MF_F3.opus
</region>

<region>
hivel=127
key=F4
loop_end=278229
loop_mode=loop_continuous
loop_start=86763
loop_xfade=32262
lovel=0
lpc=dCaDQoJEKMPz3CRD9lKhwub86kFUf5DBNsPSQU5jA8IJu1xBzhcHQTdul8Ew5E1BbUGFwOOpQEFjQ43B7GQOQXNnPUDD9erAO9KEP5MNO0AHRo1AytADwFCF3MBBaqNA
lpc_rms=-17.69
offset=5584
sample=Bass_sustain_MF_F4.opus
</region>

<region>
hivel=127
key=G#2
loop_end=289734
loop_mode=loop_continuous
loop_start=89152
loop_xfade=33151
lovel=0
lpc=0e9CQvH6CsMpgCBDQ4vWwrKra0JpCCvCKghBQmZeRMKLKtxBSOGcwJ0x2EDauJ/BF9pmQdi+IUCvKBTBptsvQR34JsFrRpRA5i/eP2snu8DoJxZB3socwYtqYEAjTRQ/
lpc_rms=-24.38
offset=5526
sample=Bass_sustain_MF_G#2.opus
</region>

<region>
hivel=127
key=G#3
loop_end=287264
loop_mode=loop_continuous
loop_start=87473
loop_xfade=32526
lovel=0
lpc=td5SQiPkBsOlUvpCZKGRwgJJZUIuCgjCPSsNQS32vsDpAVFAtQoFQWLxMsF23tK/X1ISvww6YkFRcGDBh36LQWlOhcF90+K+Y21RQbeMSsG/I+9A0bqtwM6FgUCLOKe/
lpc_rms=-22.12
offset=1347
sample=Bass_sustain_MF_G#3.opus
</region>

<region>
hivel=127
key=G#4
loop_end=271388
loop_mode=loop_continuous
loop_start=84947
loop_xfade=31587
lovel=0
lpc=24KGQpUAMsPaz0RDquH5wj4We0JDRyPCqf8IQsivxMGX0B1BGANSQWls0sHoWZo/yq3FQaOfs8FtoDpB+kdkwI8ZrUCrC5LB+ie3QWESD8FshwnBxoq7QcpErsHWCP9A
lpc_rms=-20.48
offset=6702
sample=Bass_sustain_MF_G#4.opus
</region>

<region>
hivel=127
key=G2
loop_end=282160
loop_mode=loop_continuous
loop_start=87791
loop_xfade=32645
lovel=0
lpc=7VUfQlFO4cLMHQRDyc6pwvXs4UFZ1kbAbaUrQZ8d08H+2NxB7Hg6wZLBEUDwJSvBrDx8QUWcNsGe4BVBsBjLwPUz8j8AoaG/JqmhQBdYA8HrOTVB2IwtwYssSUAEf0c/
lpc_rms=-22.09
offset=6351
sample=Bass_sustain_MF_G2.opus
</region>

<region>
hivel=127
key=G3
loop_end=286725
loop_mode=loop_continuous
loop_start=87371
loop_xfade=32488
lovel=0
lpc=+4uMQqoNN8M0qiZDhGqnwhv5WELeis3BBLeBQeVBCMIQP6FBjXhVQQaQ18EW41VB08TMwJ2i0kDsv5A/R1k0QfrVmcEYzzhAPw+NQCeEaT9u2C7BLHY7QXu/O7//+A3A
lpc_rms=-17.56
offset=1713
sample=Bass_sustain_MF_G3.opus
</region>

<region>
hivel=127
key=G4
loop_end=280018
loop_mode=loop_continuous
loop_start=87121
loop_xfade=32395
lovel=0
lpc=YazxQRbtlcIwSZBCwmkkwu5b5EHqk+vB8hL4QalvwcFicBRBrISbQAdNRcFDyqhAesjoQM5mF8FdasRAnhUXwV7+e0F952vBV9H2QBa4QcBrntY/PsK/QAzoTsEHmeRA
lpc_rms=-22.70
offset=3067
sample=Bass_sustain_MF_G4.opus
</region>
</group>

<group>
group_label=FF
lpc_hicc1=127
lpc_locc1=85

<region>
hivel=127
key=A#1
loop_end=252897
loop_mode=loop_continuous
loop_start=85460
loop_xfade=31778
lovel=0
lpc=wyWdQYnVTMKkFEpC7RegwSgFq78VIBjA7i0xQcRv578S/U/Bn4wkQZGFdkCCkBDByLu6PwST60DWWLjApeV8vyJtE0CIHB3APqSwQNLhHsEeJjJBK3B8wItML8BDm/c/
lpc_rms=-17.30
offset=2252
sample=Bass_sustain_FF_A#1.opus
</region>

<region>
hivel=127
key=A#2
loop_end=273338
loop_mode=loop_continuous
loop_start=85588
loop_xfade=31826
lovel=0
lpc=ZyUsQWxhxMGx3p9Blw6/wJ8ND78WB389l9ewP+P6oT+uUZTA0w88QFtr/74eKik/oY8CwM89lT8O0RFALA0+wPskA0Daibu/dR4pv/4lnD9vY/O+7gPWPwdKHMC3vow/
lpc_rms=-21.41
offset=2210
sample=Bass_sustain_FF_A#2.opus
</region>

<region>
hivel=127
key=A#3
loop_end=270554
loop_mode=loop_continuous
loop_start=84657
loop_xfade=31480
lovel=0
lpc=IAdYQY4wAsKBr/FBpdVKwXrOXUAd9lvA3qWNQLjcVMAs4Tw/hHzXP41xIb+kRt6/Y+JrvbIdD0Cxd4Y+myBfwLTyFEDMkMM/YDIPwLnRgjypTq4/KBoXPwtOasA6eRVA
lpc_rms=-20.98
offset=1807
sample=Bass_sustain_FF_A#3.opus
</region>

<region>
hikey=G5
hivel=127
lokey=A#4
loop_end=272516
loop_mode=loop_continuous
loop_start=84421
loop_xfade=31391
lovel=0
lpc=o/5jQQpdBMJl1thBe5/8wLNxej+zc4vAY8zJQNGrVcDAGxW+a0FCQLrqrsDZ6INA9ltJPhYRlsDJvmpACtdeQMAVEcAJSZvAKg2LQG5UHr/kjcu+gUJBQNPmqMDRHS9A
lpc_rms=-23.11
offset=2717
pitch_keycenter=A#4
sample=Bass_sustain_FF_A#4.opus
</region>

<region>
hivel=127
key=A2
loop_end=283135
loop_mode=loop_continuous
loop_start=86486
loop_xfade=32159
lovel=0
lpc=vCt6QYkKGMIlpRFCfomMwV8Uu0CNgubAdMQEQfpJED6NH/rA6QWTQNGjHT/7C5y/bog9P/S+BMC3QJ1A2/lEwFejnr8XHsU/BOSovAspbL80cvS8UIEbQFCLNcCUTpw/
lpc_rms=-18.09
offset=2711
sample=Bass_sustain_FF_A2.opus
</region>

<region>
hivel=127
key=A3
loop_end=274186
loop_mode=loop_continuous
loop_start=86481
loop_xfade=32157
lovel=0
lpc=bPkQQdJ+tcFr87pB8TFLwepLmkCWShPAeKO9P2MW3b7Tbcq/e5A+QIp+G8C01tw/BdCLvw4R478n3X1A5wExwDo1nj5OdYU/J2HSv2K67z8T0ZG/R4u2PgMvQr8bFho/
lpc_rms=-23.66
offset=1077
sample=Bass_sustain_FF_A3.opus
</region>

<region>
hivel=127
key=A4
loop_end=273722
loop_mode=loop_continuous
loop_start=85736
loop_xfade=31880
lovel=0
lpc=6iH8QQselMKBs5BCLTIewoSKS0HDL4HAcvkQQUyBWMH7EDBBB3ubwE1NXED7v9fA+7PqPxiaZUC3Bmc/lGrDwH63FkG2uTDBEz0oQXVuscB6HFvAOTa3QBCCyb8ZE4c/
lpc_rms=-19.02
offset=3114
sample=Bass_sustain_FF_A4.opus
</region>

<region>
hivel=127
key=B1
loop_end=267297
loop_mode=loop_continuous
loop_start=90327
loop_xfade=33587
lovel=0
lpc=lGYyQWK/3MGPD+ZBtmmNwXZB5UBujjvAVzQ7QFTttT3r/ZDAr8ZhQMgcD74JJQDAo8oYQL/beL+cbj5AoUOvwP05Q0CCL6i9upSSPoGQmsCXzQRBwtKUwMKjPL4OiTY/
lpc_rms=-17.33
offset=9082
sample=Bass_sustain_FF_B1.opus
</region>

<region>
hivel=127
key=B2
loop_end=283564
loop_mode=loop_continuous
loop_start=87944
loop_xfade=32702
lovel=0
lpc=H9ZdQUuGAsIOFO9BE8FSwdO/MUC9n8O/o5FyQIA0tL/EydrAixkjQTRXrMAMNZy/a3tYQHzPw7+rOWo+OV76v/mQgkCgkUHAX+RdP1+GgT/ZGOK/CHa3P8wN7b+7v70/
lpc_rms=-20.93
offset=2675
sample=Bass_sustain_FF_B2.opus
</region>

<region>
hivel=127
key=B3
loop_end=275508
loop_mode=loop_continuous
loop_start=87021
loop_xfade=32358
lovel=0
lpc=HDAsQaas0sEJ1c9BLwxlwVMy20DBbVjAT5gPQHGPC8BzhRg/UNO1P0Nv17/x6T8/M0SkvTYjuj6W8rk++GMrv8T6X7+YUiNAAQYSwGlZqz0WXQ1Aa5gsvz0+IMCbT+8/
lpc_rms=-23.43
offset=893
sample=Bass_sustain_FF_B3.opus
</region>

<region>
hivel=127
key=C#2
loop_end=280234
loop_mode=loop_continuous
loop_start=85791
loop_xfade=31901
lovel=0
lpc=6Qv3QG2+icHnOIZB43gJwcY2kT9uT0s/10/3Pn6ONz8W5ULAd97LP7OBfT8NfOW/XD84P1Zw/z4FkAm+GW+6voYuNb4QM7w+BMmTvq1zHj+JBvq/ODMZQPc3wL95x6o+
lpc_rms=-21.92
offset=6260
sample=Bass_sustain_FF_C#2.opus
</region>

<region>
hivel=127
key=C#3
loop_end=274263
loop_mode=loop_continuous
loop_start=84607
loop_xfade=31461
lovel=0
lpc=6p+mQcTNRML33SlCPW+ewefYMkEanA7BH+++QJzlpcDO6elANEY9wOVEp8Cjiu4+3L2YQPsoCL46Wyw/6hqJv0/ZFsB70SNAJGa0vsDjK7/kRh7ApKoeQOJm4D+l4vC/
lpc_rms=-21.63
offset=1574
sample=Bass_sustain_FF_C#3.opus
</region>

<region>
hivel=127
key=C#4
loop_end=272579
loop_mode=loop_continuous
loop_start=83800
loop_xfade=31161
lovel=0
lpc=RCgeQqlmu8JhrqZCj54PwrpMakFrPoDB/BVrQd9m3sAdAB/ByB3jQfP6w8FkHuNAHkSqwNdspUAhG3hADo0iwdcdOkEZ8QK/zJp7wSznhEEKHbbAHzqMQAHfWMEA0xpB
lpc_rms=-14.58
offset=2686
sample=Bass_sustain_FF_C#4.opus
</region>

<region>
hivel=127
key=C2
loop_end=281667
loop_mode=loop_continuous
loop_start=91247
loop_xfade=33930
lovel=0
lpc=x7EDQdnplsHI545BJjkSwZwICUAn7hC/ilm6PzH8Oz9Dg4XALIZDQCaXTD/otjrAEbcqQNWNvL8jHhBAYyNFwLWbnj/kUPM+pykzvqw+rL9JB3I/Q6naPwQWMcDQQZE/
lpc_rms=-18.82
offset=557
sample=Bass_sustain_FF_C2.opus
tune=-24.00
</region>

<region>
hivel=127
key=C3
loop_end=280421
loop_mode=loop_continuous
loop_start=85339
loop_xfade=31733
lovel=0
lpc=Js07QYBJy8GZgJtB91jUwAzU4z+0FRzAs6pQQN2Qxb5Q8bu/zjWxvlFtX746KY8/RZ8qvxbcYD569OU/qjDBvwMe2T4DvI6/jCm0PyTT6r8ZQ4U/w6RiPnF6677F0ZU+
lpc_rms=-22.20
offset=2880
sample=Bass_sustain_FF_C3.opus
</region>

<region>
hivel=127
key=C4
loop_end=284621
loop_mode=loop_continuous
loop_start=87869
loop_xfade=32674
lovel=0
lpc=XofUQeldj8JG4JhC/S4fwlsBBkH1cx69Jm2aQG4D9sBwDUfAGe+MQfKlicFuTd1Aauemv2+HP8B2vvJAiQwWwTRpD0G8B82/CSvKwNGNy0Ca+xjA2jFbP7lNSMCJXiFA
lpc_rms=-17.92
offset=15188
sample=Bass_sustain_FF_C4.opus
</region>

<region>
hivel=127
key=D#2
loop_end=260533
loop_mode=loop_continuous
loop_start=88041
loop_xfade=32737
lovel=0
lpc=iboGQQZclsGzIIZBLxYDwXswCkBXnjG/FKG2P6pWkj8WClnAvyFZP/KZmD/B+Y6/4AUiPxGrUD0eVIQ//maGv1XiIL9ZQSc/HQ0EvVuzqL72HBS/QbscQLQMEcANFk4/
lpc_rms=-20.25
offset=2677
sample=Bass_sustain_FF_D#2.opus
</region>

<region>
hivel=127
key=D#3
loop_end=277189
loop_mode=loop_continuous
loop_start=85661
loop_xfade=31853
lovel=0
lpc=b72EQV9RJMJkLh5CPA6awW+rs0AdhzHArRxvQBEKfcAM/mFAEoHjPhoon8C7dWg+H/jZQGT/xsAAJRBA25U0QCJ4iMCJoMQ/8yKAPS35nL98jJc/VxhAv7vHTT9BI/S+
lpc_rms=-22.90
offset=769
sample=Bass_sustain_FF_D#3.opus
</region>

<region>
hivel=127
key=D#4
loop_end=256282
loop_mode=loop_continuous
loop_start=86604
loop_xfade=32203
lovel=0
lpc=DRf5QQ/unMI3s69CEXtxwjS4+0EfrYXBtLZLQcmCc8GYJYNBXysUwUXJbUCpcAbBIyn2QMPbhMANZoFA9UG8wCCuBUEFoeXAf1jiP+MUtr5FM51Asp1uwP2EOcAd14NA
lpc_rms=-17.97
offset=7218
sample=Bass_sustain_FF_D#4.opus
</region>

<region>
hivel=127
key=D2
loop_end=271324
loop_mode=loop_continuous
loop_start=85399
loop_xfade=31755
lovel=0
lpc=s/8HQQw1msESI5hBxxAkwT4LA0Bbe50+UU6eP0Nosj6YgHjAvjxAQKa+nr684H2/4Bg9PwhWa79Y+lhAVNuRwIodJ0Ca76u/Ecj0P+wBdsCUMWRAMPTRvrWC1b/hU1w/
lpc_rms=-20.26
offset=3124
sample=Bass_sustain_FF_D2.opus
</region>

<region>
hivel=127
key=D3
loop_end=277560
loop_mode=loop_continuous
loop_start=88025
loop_xfade=32732
lovel=0
lpc=qvq9Qa1JfMLtUYRCvFgYwiuHkEELxFTBLq5EQXhbEsGHjMtAPuEav+h1A8Gq6uNA6jcxPzRKIcCNF0A9dNJUQBnbqsDMqLRAObnKwERAzUBa8a7A3KW+PzP/9j+vrXG/
lpc_rms=-22.43
offset=1092
sample=Bass_sustain_FF_D3.opus
</region>

<region>
hivel=127
key=E3
loop_end=274139
loop_mode=loop_continuous
loop_start=85522
loop_xfade=31801
lovel=0
lpc=ma6yQeUjXcLBYEhCZ+G9wT4yTUEPst3ATGQuv2+2h0DN0pTAzic0QGvHsL/bXIk/COZZv0FtNcBzruBAm7zSPMV7eMCFjUDAAQEbQH34hD+dAHJAmkSMwBobzr+J7w9A
lpc_rms=-20.93
offset=3257
sample=Bass_sustain_FF_E3.opus
</region>

<region>
hivel=127
key=E4
loop_end=285465
loop_mode=loop_continuous
loop_start=87565
loop_xfade=32561
lovel=0
lpc=1GdaQna59ML69stCt64owpjZZUHRFUnBS6uhQVL6lsG/kMBAlUoSQeb9csEC2TQ/V2lsQAq5lEAX5fg/4Vo4wRHLL0GuKqfAI+nTv/OUAsCslINBzKOOwSgNKb9rcABB
lpc_rms=-12.84
offset=6717
sample=Bass_sustain_FF_E4.opus
</region>

<region>
hivel=127
key=F#2
loop_end=279484
loop_mode=loop_continuous
loop_start=86217
loop_xfade=32060
lovel=0
lpc=uko0QS8j0sECnchBEmlRwao1cUB3GgXAbJSNQOflzb+mE3vAI38KQAVWHUCrVWfAqT73P5cIqr8nHydAO4tav/ztTMDRO29Awv32v6zxpT9DG3jA0JvPQDRVn8DbYeQ/
lpc_rms=-18.43
sample=Bass_sustain_FF_F#2.opus
</region>

<region>
hivel=127
key=F#3
loop_end=280133
loop_mode=loop_continuous
loop_start=88308
loop_xfade=32837
lovel=0
lpc=HK8EQryIpcIZfZ1CprQvwsrVAEJeXgHCqBTnQVP0ksHVFZ2/30cXQaoyD8B4pUjAe2GFPxCzIkCy4rPADUmoQFB4i8CPARtBs9l3wWBhfEF6Z0nBpJIIQYPAxMBMsU1A
lpc_rms=-16.55
offset=1062
sample=Bass_sustain_FF_F#3.opus
</region>

<region>
hivel=127
key=F#4
loop_end=274536
loop_mode=loop_continuous
loop_start=85818
loop_xfade=31911
lovel=0
lpc=AgwoQplTwsIz3axCBpBDwsYX5kGZ11LBj1QiQdUuH8H8j5vAkRh5QRkFdcGvVl5BI0o1wfL79UCmdW7Ay3Y/v+bshUBoo2bADtAiwDubmUAyhZFAMVnuv+DKXMF89CtB
lpc_rms=-14.40
offset=3217
sample=Bass_sustain_FF_F#4.opus
</region>

<region>
hivel=127
key=F2
loop_end=293338
loop_mode=loop_continuous
loop_start=89033
loop_xfade=33106
lovel=0
lpc=pdgSQY1yqsE5pqpBlQdHwdIvOkAdl+c+7F7LP/Xc9L4qKQ3AFBODP6u79j7Wn4e/UFuBvDic1z9dexc+jg4VwIlwJECfLirA6EP2P8J90L+ZrUk/lmTVP7qGEcCqUXM/
lpc_rms=-20.47
offset=8805
sample=Bass_sustain_FF_F2.opus
</region>

<region>
hivel=127
key=F3
loop_end=274844
loop_mode=loop_continuous
loop_start=86405
loop_xfade=32130
lovel=0
lpc=Dm2TQZD8N8KwjS9CjrGmwXFIU0Alg5pA4Eb/v15I9r9tKIjAQWkfQQHN0sBQjro/lB0JwGyN/T/c6lNAxuBiwI/3MT61YaO9d2MWPy83477OpKS/uaiNQFhfssCi8x1A
lpc_rms=-18.83
offset=1431
sample=Bass_sustain_FF_F3.opus
</region>

<region>
hivel=127
key=F4
loop_end=278253
loop_mode=loop_continuous
loop_start=87014
loop_xfade=32356
lovel=0
lpc=fLK/QWu4WMLXDTFCC7GkwZYAF0FbPFfArUvVQBWW38B5d53ALz9qQTcbSsFKJJZAo75EQOpHNsH1uUNBlZogwfwIGkGd+Me+e26hwNt7tj6C4mQ/lRGWQKSyK8ETBtVA
lpc_rms=-16.20
offset=10531
sample=Bass_sustain_FF_F4.opus
</region>

<region>
hivel=127
key=G#2
loop_end=287174
loop_mode=loop_continuous
loop_start=88791
loop_xfade=33016
lovel=0
lpc=575YQdFXB8L5FhFC7Im3wdbR90BGXD+/KQyoP5hTK0DIABrBM1QJQe2Cc8Dzr9Q87YzCP/TDEcAmDJdAYvVQwDvxgr5UHNO+m64gQLImNsDmbay/FJTQQPreoMA1MZQ/
lpc_rms=-18.75
offset=13484
sample=Bass_sustain_FF_G#2.opus
</region>

<region>
hivel=127
key=G#3
loop_end=277332
loop_mode=loop_continuous
loop_start=86222
loop_xfade=32061
lovel=0
lpc=HXawQfX6aMJ4gXFCtqwFwsXtVUE5jrnA/R+TQGOgR8Cc0ZnAryg2QWJj38CF0gDAsEuHQHeVcL9nazzAGJ6cQL9RCcDRPTPAijN3QP84BsC3ETZA7L8lv6zkrMAuq4BA
lpc_rms=-19.39
offset=7501
sample=Bass_sustain_FF_G#3.opus
</region>

<region>
hivel=127
key=G#4
loop_end=280375
loop_mode=loop_continuous
loop_start=88364
loop_xfade=32858
lovel=0
lpc=k7vlQVK5Z8KcvBxCgCyAwalHlEFI9JPBKtFmQe8oG8GK15XAEKJLQUgJjcAwDaA+4ry8wG/aIUDPjbNA1yzcwBLCtUB+NrTAcT4uQKB1bz8UtIRAFoCewAgcQcCRX4tA
lpc_rms=-16.63
offset=5941
sample=Bass_sustain_FF_G#4.opus
</region>

<region>
hivel=127
key=G2
loop_end=289070
loop_mode=loop_continuous
loop_start=89652
loop_xfade=33337
lovel=0
lpc=B/lVQbv/+sHznfBBtf2KwaiY+UAkjavAipjgQGUEY8AlQQq/ko7iv2d9aECp2xzAkCySvcMsP0Ay/gjABiuaP3u/BcAJ240/hoWJP/QqrL9TrgPAsGy1QDuGlsAj1NI/
lpc_rms=-17.40
offset=8776
sample=Bass_sustain_FF_G2.opus
</region>

<region>
hivel=127
key=G3
loop_end=284590
loop_mode=loop_continuous
loop_start=88883
loop_xfade=33051
lovel=0
lpc=n0PqQa+elMJbnYVCg2LEwXNYA0GWVjbBDgg7QY8yEMF5arA/fR6UQHqbu79S8jfAnS6cP5KmaUDEQuDAKantQE6+hsDPn2vA2InoQKHrXUCC/E3BiVG7QFxVOz5odxc/
lpc_rms=-14.12
offset=1694
sample=Bass_sustain_FF_G3.opus
</region>

<region>
hivel=127
key=G4
loop_end=285290
loop_mode=loop_continuous
loop_start=88015
loop_xfade=32728
lovel=0
lpc=VmYuQqS3ysJeMrRCSiA+wgne7EHkM3PBMUWyP6ZtuECi/HTBWDa1Qa07n8Gpqy5BgwgvwQviREFpSHzA1+dcwLxNxkA1cu7A1hhNQdTQzsGCjABCIxWEwerVo8AI6/xA
lpc_rms=-16.62
offset=4572
sample=Bass_sustain_FF_G4.opus
</region>

<region>
hikey=D4
hivel=127
lokey=D4
loop_end=272579
loop_mode=loop_continuous
loop_start=83800
loop_xfade=31161
lovel=0
lpc=RCgeQqlmu8JhrqZCj54PwrpMakFrPoDB/BVrQd9m3sAdAB/ByB3jQfP6w8FkHuNAHkSqwNdspUAhG3hADo0iwdcdOkEZ8QK/zJp7wSznhEEKHbbAHzqMQAHfWMEA0xpB
lpc_rms=-14.58
offset=2686
pitch_keycenter=C#4
sample=Bass_sustain_FF_C#4.opus
</region>

<region>
hikey=E2
hivel=127
lokey=E2
loop_end=260533
loop_mode=loop_continuous
loop_start=88041
loop_xfade=32737
lovel=0
lpc=iboGQQZclsGzIIZBLxYDwXswCkBXnjG/FKG2P6pWkj8WClnAvyFZP/KZmD/B+Y6/4AUiPxGrUD0eVIQ//maGv1XiIL9ZQSc/HQ0EvVuzqL72HBS/QbscQLQMEcANFk4/
lpc_rms=-20.25
offset=2677
pitch_keycenter=D#2
sample=Bass_sustain_FF_D#2.opus
</region>
</group>